<svg viewBox="0 0 512 512" xmlns="http://www.w3.org/2000/svg" role="img" aria-labelledby="title">
  <title id="title">Apple</title>
  <defs>
    <linearGradient id="background" x1="68" y1="48" x2="448" y2="470" gradientUnits="userSpaceOnUse">
      <stop stop-color="#445164"/>
      <stop offset=".48" stop-color="#202936"/>
      <stop offset="1" stop-color="#0B1017"/>
    </linearGradient>
    <linearGradient id="border" x1="78" y1="44" x2="430" y2="466" gradientUnits="userSpaceOnUse">
      <stop stop-color="#C7D2E0"/>
      <stop offset=".45" stop-color="#65758A"/>
      <stop offset="1" stop-color="#263242"/>
    </linearGradient>
    <filter id="shadow" x="-20%" y="-20%" width="140%" height="150%">
      <feDropShadow dx="0" dy="18" stdDeviation="18" flood-color="#000" flood-opacity=".45"/>
    </filter>
  </defs>
  <rect x="24" y="24" width="464" height="464" rx="116" fill="url(#background)" stroke="url(#border)" stroke-width="8"/>
  <path filter="url(#shadow)" fill="#F5F7FA" transform="translate(76 68) scale(15)"
    d="M12.152 6.896c-.948 0-2.415-1.078-3.96-1.04-2.04.027-3.91 1.183-4.961 3.014-2.117 3.675-.546 9.103 1.519 12.09 1.013 1.454 2.208 3.09 3.792 3.039 1.52-.065 2.09-.987 3.935-.987 1.831 0 2.35.987 3.96.948 1.637-.026 2.676-1.48 3.676-2.948 1.156-1.688 1.636-3.325 1.662-3.415-.039-.013-3.182-1.221-3.22-4.857-.026-3.04 2.48-4.494 2.597-4.559-1.429-2.09-3.623-2.324-4.39-2.376-2-.156-3.675 1.09-4.61 1.09zM15.53 3.83c.843-1.012 1.4-2.427 1.245-3.83-1.207.052-2.662.805-3.532 1.818-.78.896-1.454 2.338-1.273 3.714 1.338.104 2.715-.688 3.559-1.701"/>
</svg>
